Coordinates
version=1
nRows=29
nColumns=30
inDegrees=yes

Units are S.I. units (second, meters, Newtons, ...)
Angles are in degrees.

endheader
time	floatyaw	floatroll	floatpitch	floatx	floaty	floatz	pro_sup_l	deviation_l	flexion_l	cmc_flexion_l	cmc_abduction_l	mp_flexion_l	ip_flexion_l	2mcp_flexion_l	2mcp_abduction_l	2pm_flexion_l	2md_flexion_l	3mcp_flexion_l	3mcp_abduction_l	3pm_flexion_l	3md_flexion_l	4mcp_flexion_l	4mcp_abduction_l	4pm_flexion_l	4md_flexion_l	5mcp_flexion_l	5mcp_abduction_l	5pm_flexion_l	5md_flexion_l
0.005000	-160.147433	-5.066637	-73.570646	-0.060592	-0.106795	-0.119571	112.973463	29.090784	-7.499934	-0.748129	39.193135	-27.565012	-51.838752	43.630332	15.750198	66.394549	68.588764	56.631155	6.782608	76.172391	59.928470	56.581666	-6.021730	83.808161	68.086109	43.938802	-15.450466	81.720250	69.991824
0.015000	-160.147433	-5.066637	-73.570646	-0.060413	-0.103250	-0.118623	110.832629	28.941267	-6.107714	-0.482032	39.350400	-27.701491	-52.671147	46.176934	16.152025	63.971873	69.153576	58.969959	6.698548	75.308631	60.172652	59.038814	-6.090338	83.107946	68.481016	44.454512	-15.586257	81.558342	70.699258
0.025000	-160.147433	-5.066637	-73.570646	-0.060091	-0.099414	-0.117798	109.097700	28.741441	-4.921169	-0.032713	39.274762	-27.626590	-53.161502	48.098626	16.422825	61.240624	69.363228	60.640385	6.638635	73.862564	60.133457	60.621918	-6.149431	82.028364	68.598089	44.695939	-15.678211	80.920594	71.030246
0.035000	-160.147433	-5.066637	-73.570646	-0.059754	-0.095692	-0.117183	107.715765	28.496456	-3.830807	0.351842	39.082876	-27.476876	-53.497295	49.537289	16.622415	58.567209	69.359963	61.826747	6.608844	72.234780	60.047073	61.550437	-6.205203	80.956165	68.686307	44.850652	-15.748283	80.150005	71.205801
0.045000	-160.147433	-5.066637	-73.570646	-0.059456	-0.092551	-0.116810	106.625102	28.203249	-2.812861	0.523368	38.877758	-27.395220	-53.865477	50.603949	16.777691	56.250035	69.209110	62.642816	6.600258	70.810258	60.007617	62.022877	-6.256231	80.144480	68.813534	44.919489	-15.800000	79.581526	71.362871
0.055000	-160.147433	-5.066637	-73.570646	-0.059192	-0.090361	-0.116646	105.774247	27.861269	-1.931581	0.462603	38.700813	-27.487991	-54.363901	51.364889	16.895386	54.480034	68.953437	63.139881	6.600130	69.870680	60.008500	62.182624	-6.298173	79.704585	68.937084	44.807507	-15.831796	79.433386	71.558569
0.065000	-160.147433	-5.066637	-73.570646	-0.058925	-0.089249	-0.116619	105.124630	27.483772	-1.280428	0.251999	38.525269	-27.795481	-54.968430	51.851155	16.975724	53.313169	68.644653	63.341033	6.598798	69.521171	60.005418	62.115475	-6.327404	79.621013	68.993871	44.427132	-15.843567	79.742283	71.792258
0.075000	-160.147433	-5.066637	-73.570646	-0.058621	-0.089060	-0.116647	104.645356	27.101650	-0.906893	0.011672	38.285537	-28.287132	-55.564858	52.081753	17.020925	52.676587	68.339780	63.277762	6.591926	69.677950	59.963818	61.871771	-6.343006	79.788213	68.956768	43.766775	-15.837809	80.378979	72.031400
0.085000	-160.147433	-5.066637	-73.570646	-0.058275	-0.089436	-0.116662	104.307631	26.756743	-0.772600	-0.163648	37.916496	-28.881738	-56.015412	52.085435	17.037643	52.412435	68.077973	63.008362	6.579716	70.127452	59.875918	61.492102	-6.347029	80.062846	68.842273	42.901293	-15.818508	81.130420	72.232920
0.095000	-160.147433	-5.066637	-73.570646	-0.057909	-0.089973	-0.116625	104.082517	26.488779	-0.770276	-0.235587	37.377047	-29.482801	-56.218424	51.906288	17.035033	52.340303	67.862897	62.609428	6.564986	70.624973	59.754871	61.016798	-6.343315	80.316687	68.687928	41.950200	-15.789852	81.797431	72.357997
0.105000	-160.147433	-5.066637	-73.570646	-0.057553	-0.090366	-0.116524	103.942559	26.323422	-0.780065	-0.214912	36.651581	-30.013006	-56.136343	51.592059	17.021287	52.310765	67.665664	62.150053	6.551344	70.983793	59.622173	60.477482	-6.335668	80.472232	68.527015	41.015493	-15.755621	82.258687	72.382147
0.115000	-160.147433	-5.066637	-73.570646	-0.057228	-0.090485	-0.116366	103.866013	26.266539	-0.727157	-0.133130	35.742077	-30.432625	-55.791249	51.179179	17.001329	52.232280	67.446063	61.670083	6.541967	71.119750	59.499071	59.886312	-6.326455	80.510855	68.376713	40.138730	-15.719425	82.482231	72.301752
0.125000	-160.147433	-5.066637	-73.570646	-0.056931	-0.090369	-0.116168	103.840670	26.305080	-0.608662	-0.016325	34.665447	-30.736872	-55.242208	50.688887	16.976891	52.071129	67.178143	61.178188	6.538967	71.045667	59.403526	59.238472	-6.316403	80.457254	68.240435	39.300142	-15.685165	82.498370	72.135578
0.135000	-160.147433	-5.066637	-73.570646	-0.056642	-0.090150	-0.115954	103.863733	26.412222	-0.479781	0.125032	33.457949	-30.940476	-54.561036	50.136118	16.948343	51.836168	66.864862	60.668350	6.543074	70.833961	59.348976	58.528603	-6.305499	80.354158	68.116418	38.453206	-15.656824	82.362574	71.919364
0.145000	-160.147433	-5.066637	-73.570646	-0.056341	-0.089963	-0.115752	103.936544	26.554496	-0.412516	0.291344	32.177203	-31.062919	-53.816300	49.541560	16.916621	51.561024	66.534198	60.140480	6.553546	70.572800	59.341741	57.768645	-6.294138	80.241133	68.004334	37.567642	-15.637341	82.130206	71.694225
0.155000	-160.147433	-5.066637	-73.570646	-0.056022	-0.089890	-0.115586	104.057116	26.699614	-0.452729	0.484121	30.893425	-31.122077	-53.066557	48.936696	16.883953	51.289321	66.221554	59.610964	6.568336	70.333794	59.377862	56.994072	-6.283585	80.143733	67.906395	36.654175	-15.627361	81.847899	71.493409
0.165000	-160.147433	-5.066637	-73.570646	-0.055699	-0.089936	-0.115473	104.215537	26.823648	-0.598319	0.700377	29.671324	-31.134759	-52.358602	48.358946	16.853183	51.062099	65.951940	59.108665	6.584602	70.157189	59.443156	56.254939	-6.275496	80.071985	67.824667	35.760729	-15.624933	81.553739	71.333564
0.175000	-160.147433	-5.066637	-73.570646	-0.055397	-0.090053	-0.115416	104.395279	26.915598	-0.806145	0.933571	28.552101	-31.118304	-51.726306	47.841176	16.826428	50.906370	65.732995	58.662036	6.599482	70.051847	59.518484	55.598001	-6.270958	80.024236	67.758416	34.947947	-15.626476	81.277136	71.214095
0.185000	-160.147433	-5.066637	-73.570646	-0.055137	-0.090177	-0.115405	104.579056	26.977644	-1.018303	1.177499	27.545575	-31.089412	-51.188541	47.402162	16.804094	50.827660	65.559105	58.286868	6.610913	70.004123	59.587378	55.050072	-6.269830	79.992909	67.703572	34.260921	-15.628431	81.035819	71.122916
0.195000	-160.147433	-5.066637	-73.570646	-0.054930	-0.090261	-0.115423	104.754703	27.021017	-1.189875	1.428576	26.636456	-31.060732	-50.747823	47.042642	16.784882	50.811112	65.418903	57.981390	6.618181	69.990474	59.640678	54.610575	-6.270797	79.970187	67.653673	33.711973	-15.628615	80.833980	71.043612
0.205000	-160.147433	-5.066637	-73.570646	-0.054768	-0.090289	-0.115452	104.917057	27.059378	-1.303801	1.684919	25.800600	-31.038214	-50.392439	46.747903	16.766720	50.831691	65.299954	57.729757	6.621930	69.989798	59.675845	54.255892	-6.272022	79.952378	67.601143	33.280655	-15.626640	80.665997	70.960551
0.215000	-160.147433	-5.066637	-73.570646	-0.054635	-0.090274	-0.115479	105.065499	27.102549	-1.369084	1.943816	25.021400	-31.021438	-50.103149	46.495108	16.747984	50.867407	65.190948	57.510571	6.623630	69.991394	59.693695	53.952272	-6.271967	79.941318	67.539177	32.927508	-15.623414	80.524262	70.862378
0.225000	-160.147433	-5.066637	-73.570646	-0.054515	-0.090246	-0.115497	105.200333	27.153024	-1.408222	2.200077	24.296880	-31.006617	-49.862160	46.262238	16.728295	50.906851	65.084649	57.305600	6.624829	69.995367	59.696977	53.670211	-6.269981	79.941582	67.465091	32.612156	-15.620253	80.404649	70.745735
0.235000	-160.147433	-5.066637	-73.570646	-0.054398	-0.090230	-0.115507	105.321169	27.206212	-1.443114	2.446615	23.634685	-30.990212	-49.659552	46.035159	16.708492	50.947251	64.981664	57.104863	6.626568	70.006237	59.691851	53.393327	-6.266393	79.954946	67.383909	32.306270	-15.618108	80.305366	70.618279
0.245000	-160.147433	-5.066637	-73.570646	-0.054280	-0.090239	-0.115513	105.427662	27.253631	-1.486108	2.676768	23.040710	-30.971185	-49.493436	45.810149	16.689913	50.987274	64.891110	56.906749	6.629171	70.025122	59.688967	53.118754	-6.262137	79.976469	67.308647	31.997033	-15.617145	80.221952	70.497218
0.255000	-160.147433	-5.066637	-73.570646	-0.054163	-0.090268	-0.115521	105.520647	27.287107	-1.538203	2.886710	22.510928	-30.951053	-49.364428	45.591649	16.673567	51.022114	64.825509	56.714632	6.632370	70.046467	59.700597	52.851344	-6.258192	79.995885	67.255020	31.683161	-15.616712	80.144989	70.401518
0.265000	-160.147433	-5.066637	-73.570646	-0.054049	-0.090307	-0.115536	105.602012	27.301940	-1.592756	3.076457	22.032085	-30.932368	-49.269307	45.387505	16.659750	51.044617	64.792677	56.532974	6.635617	70.061182	59.734422	52.596777	-6.255203	80.003766	67.232949	31.368846	-15.615697	80.063918	70.341463
0.275000	-160.147433	-5.066637	-73.570646	-0.053941	-0.090343	-0.115561	105.673505	27.298021	-1.641498	3.249028	21.589043	-30.917292	-49.198978	45.204397	16.648229	51.050440	64.790315	56.365094	6.638405	70.063155	59.788273	52.357658	-6.253463	79.998040	67.240295	31.059568	-15.613117	79.974351	70.312232
0.285000	-160.147433	-5.066637	-73.570646	-0.053840	-0.090371	-0.115596	105.735886	27.279053	-1.679650	3.408347	21.171953	-30.907281	-49.141618	45.044769	16.638667	51.042610	64.806215	56.212638	6.640481	70.054073	59.849712	52.133522	-6.253098	79.985986	67.262756	30.760188	-15.608659	79.882795	70.295526
